<?xml version="1.0" encoding="UTF-8" standalone="no"?>
<!-- Created with Inkscape (http://www.inkscape.org/) -->

<svg
   xmlns:dc="http://purl.org/dc/elements/1.1/"
   xmlns:cc="http://creativecommons.org/ns#"
   xmlns:rdf="http://www.w3.org/1999/02/22-rdf-syntax-ns#"
   xmlns:svg="http://www.w3.org/2000/svg"
   xmlns="http://www.w3.org/2000/svg"
   xmlns:sodipodi="http://sodipodi.sourceforge.net/DTD/sodipodi-0.dtd"
   xmlns:inkscape="http://www.inkscape.org/namespaces/inkscape"
   width="210mm"
   height="297mm"
   id="svg2"
   version="1.1"
   inkscape:version="0.48.5 r10040"
   sodipodi:docname="simplified_internal_architecture.svg">
  <defs
     id="defs4" />
  <sodipodi:namedview
     id="base"
     pagecolor="#ffffff"
     bordercolor="#666666"
     borderopacity="1.0"
     inkscape:pageopacity="0.0"
     inkscape:pageshadow="2"
     inkscape:zoom="3.959798"
     inkscape:cx="312.41037"
     inkscape:cy="465.65837"
     inkscape:document-units="px"
     inkscape:current-layer="layer1"
     showgrid="false"
     inkscape:snap-bbox="true"
     inkscape:window-width="1920"
     inkscape:window-height="1003"
     inkscape:window-x="-9"
     inkscape:window-y="-9"
     inkscape:window-maximized="1" />
  <metadata
     id="metadata7">
    <rdf:RDF>
      <cc:Work
         rdf:about="">
        <dc:format>image/svg+xml</dc:format>
        <dc:type
           rdf:resource="http://purl.org/dc/dcmitype/StillImage" />
        <dc:title></dc:title>
      </cc:Work>
    </rdf:RDF>
  </metadata>
  <g
     inkscape:label="Camada 1"
     inkscape:groupmode="layer"
     id="layer1">
    <rect
       style="opacity:0.28120003;fill:#4d4d4d;fill-opacity:1"
       id="rect2985"
       width="269.36588"
       height="275.32117"
       x="81.294983"
       y="29.077654" />
    <text
       xml:space="preserve"
       style="font-size:26.92290115px;font-style:normal;font-weight:normal;line-height:125%;letter-spacing:0px;word-spacing:0px;fill:#000000;fill-opacity:1;stroke:none;font-family:Bitstream Vera Sans"
       x="98.769981"
       y="60.015556"
       id="text2987"
       sodipodi:linespacing="125%"
       transform="scale(0.99877595,1.0012255)"><tspan
         sodipodi:role="line"
         id="tspan2989"
         x="98.769981"
         y="60.015556">Screen</tspan></text>
    <rect
       style="opacity:0.28120003;fill:#4d4d4d;fill-opacity:1"
       id="rect2991"
       width="212.0219"
       height="196.65797"
       x="108.45793"
       y="78.998528" />
    <text
       xml:space="preserve"
       style="font-size:26.92290115px;font-style:normal;font-weight:normal;line-height:125%;letter-spacing:0px;word-spacing:0px;fill:#000000;fill-opacity:1;stroke:none;font-family:Bitstream Vera Sans"
       x="120.67805"
       y="114.40802"
       id="text2993"
       sodipodi:linespacing="125%"
       transform="scale(0.99877595,1.0012255)"><tspan
         sodipodi:role="line"
         id="tspan2995"
         x="120.67805"
         y="114.40802">GUI</tspan></text>
    <rect
       style="opacity:0.28120003;fill:#4d4d4d;fill-opacity:1"
       id="rect2997"
       width="440.64337"
       height="58.997398"
       x="18.427851"
       y="368.65259" />
    <text
       xml:space="preserve"
       style="font-size:26.92290115px;font-style:normal;font-weight:normal;line-height:125%;letter-spacing:0px;word-spacing:0px;fill:#000000;fill-opacity:1;stroke:none;font-family:Bitstream Vera Sans"
       x="41.880951"
       y="410.53079"
       id="text2999"
       sodipodi:linespacing="125%"
       transform="scale(0.99877599,1.0012255)"><tspan
         sodipodi:role="line"
         id="tspan3001"
         x="41.880951"
         y="410.53079">User input</tspan></text>
    <path
       sodipodi:type="arc"
       style="opacity:0.28120003;fill:#4d4d4d;fill-opacity:1"
       id="path3015"
       sodipodi:cx="149.64285"
       sodipodi:cy="421.64789"
       sodipodi:rx="16.785715"
       sodipodi:ry="90"
       d="m 166.42857,421.64789 a 16.785715,90 0 1 1 -33.57143,0 16.785715,90 0 1 1 33.57143,0 z"
       transform="matrix(0.74694295,0,0,0.7487749,3.5787672,7.3050365)" />
    <text
       xml:space="preserve"
       style="font-size:17.94860077px;font-style:normal;font-weight:normal;line-height:125%;letter-spacing:0px;word-spacing:0px;fill:#000000;fill-opacity:1;stroke:none;font-family:Bitstream Vera Sans"
       x="108.81751"
       y="340.79129"
       id="text3017"
       sodipodi:linespacing="125%"
       transform="scale(0.99877595,1.0012255)"><tspan
         sodipodi:role="line"
         id="tspan3019"
         x="108.81751"
         y="340.79129">handled by</tspan></text>
    <rect
       style="opacity:0.28120003;fill:#008080;fill-opacity:1"
       id="rect3021"
       width="167.14285"
       height="213.57143"
       x="452.14285"
       y="125.21932" />
    <text
       xml:space="preserve"
       style="font-size:24px;font-style:normal;font-weight:normal;line-height:125%;letter-spacing:0px;word-spacing:0px;fill:#000000;fill-opacity:1;stroke:none;font-family:Bitstream Vera Sans"
       x="480.71426"
       y="154.50504"
       id="text3023"
       sodipodi:linespacing="125%"><tspan
         sodipodi:role="line"
         id="tspan3025"
         x="480.71426"
         y="154.50504">WebSpree</tspan></text>
    <text
       xml:space="preserve"
       style="font-size:24px;font-style:normal;font-weight:normal;line-height:125%;letter-spacing:0px;word-spacing:0px;fill:#a02c2c;fill-opacity:1;stroke:none;font-family:Bitstream Vera Sans"
       x="480.71426"
       y="193.79076"
       id="text3027"
       sodipodi:linespacing="125%"><tspan
         sodipodi:role="line"
         id="tspan3029"
         x="480.71426"
         y="193.79076">bridge</tspan><tspan
         sodipodi:role="line"
         x="480.71426"
         y="223.79076"
         id="tspan3031">redirects</tspan><tspan
         sodipodi:role="line"
         x="480.71426"
         y="253.79076"
         id="tspan3033">input</tspan></text>
    <rect
       style="opacity:0.28120003;fill:#a02c2c;fill-opacity:1"
       id="rect3035"
       width="164.28572"
       height="92.14286"
       x="507.85715"
       y="360.93362" />
    <g
       style="font-size:24px;font-style:normal;font-weight:normal;line-height:125%;letter-spacing:0px;word-spacing:0px;fill:#000000;fill-opacity:1;stroke:none;font-family:Bitstream Vera Sans"
       id="text3037"
       transform="translate(94.285714,353.57143)">
      <path
         d="m 434.1116,33.790752 0,-17.179687 11.58985,0 0,2.027344 -9.31641,0 0,5.320312 8.0625,0 0,2.027344 -8.0625,0 0,7.804687 z"
         id="path3044"
         inkscape:connector-curvature="0" />
      <path
         d="m 448.40848,19.036846 0,-2.425781 2.10937,0 0,2.425781 z m 0,14.753906 0,-12.445312 2.10937,0 0,12.445312 z"
         id="path3046"
         inkscape:connector-curvature="0" />
      <path
         d="m 453.69363,33.790752 0,-17.179687 2.10938,0 0,17.179687 z"
         id="path3048"
         inkscape:connector-curvature="0" />
      <path
         d="m 467.60379,29.78294 2.17969,0.269531 c -0.34376,1.27344 -0.98048,2.26172 -1.91016,2.964844 -0.9297,0.703125 -2.11719,1.054687 -3.5625,1.054687 -1.82032,0 -3.26367,-0.560546 -4.33008,-1.68164 -1.0664,-1.121091 -1.59961,-2.693355 -1.59961,-4.716797 0,-2.093742 0.53907,-3.71874 1.61719,-4.875 1.07812,-1.156238 2.47656,-1.734362 4.19531,-1.734375 1.66406,1.3e-5 3.02343,0.566418 4.07813,1.699219 1.05467,1.132822 1.58202,2.72657 1.58203,4.78125 -1e-5,0.125006 -0.004,0.312506 -0.0117,0.5625 l -9.28125,0 c 0.0781,1.367191 0.46484,2.414065 1.16016,3.140625 0.69531,0.726564 1.56249,1.089845 2.60156,1.089843 0.77343,2e-6 1.43359,-0.203123 1.98047,-0.609375 0.54686,-0.406247 0.98046,-1.054684 1.30078,-1.945312 z m -6.92578,-3.410156 6.94922,0 c -0.0938,-1.046867 -0.35939,-1.832022 -0.79688,-2.355469 -0.67188,-0.81249 -1.54297,-1.218739 -2.61328,-1.21875 -0.96875,1.1e-5 -1.78321,0.324229 -2.44336,0.972656 -0.66016,0.648447 -1.02539,1.515634 -1.0957,2.601563 z"
         id="path3050"
         inkscape:connector-curvature="0" />
      <path
         d="m 472.71317,33.790752 0,-17.179687 5.91796,0 c 1.33593,1.7e-5 2.35546,0.08205 3.0586,0.246094 0.98436,0.226579 1.8242,0.636735 2.51953,1.230468 0.90623,0.76564 1.58397,1.744155 2.0332,2.935547 0.44921,1.191418 0.67381,2.552745 0.67383,4.083985 -2e-5,1.304695 -0.15236,2.460943 -0.45703,3.46875 -0.3047,1.007816 -0.69533,1.8418 -1.17188,2.501953 -0.47657,0.660158 -0.99806,1.179689 -1.56445,1.558594 -0.56642,0.378907 -1.25001,0.666016 -2.05078,0.861328 -0.80079,0.195312 -1.72071,0.292968 -2.75977,0.292968 z m 2.27343,-2.027343 3.66797,0 c 1.13281,2e-6 2.02148,-0.105467 2.66602,-0.316407 0.64452,-0.210935 1.15819,-0.507809 1.54101,-0.890625 0.53905,-0.539058 0.95897,-1.263667 1.25977,-2.173828 0.30077,-0.91015 0.45116,-2.013664 0.45117,-3.310547 -1e-5,-1.796864 -0.29494,-3.177722 -0.88477,-4.142578 -0.58985,-0.96483 -1.30665,-1.611313 -2.15039,-1.939453 -0.60938,-0.23436 -1.58985,-0.351547 -2.9414,-0.351562 l -3.60938,0 z"
         id="path3052"
         inkscape:connector-curvature="0" />
      <path
         d="m 489.00223,27.568096 c 0,-2.304679 0.64062,-4.011708 1.92187,-5.121094 1.07031,-0.921862 2.375,-1.382799 3.91407,-1.382812 1.71092,1.3e-5 3.10936,0.560559 4.19531,1.681641 1.08592,1.121103 1.62889,2.66993 1.6289,4.646484 -10e-6,1.601567 -0.24024,2.861332 -0.7207,3.779297 -0.48048,0.91797 -1.1797,1.63086 -2.09766,2.138672 -0.91797,0.507812 -1.91992,0.761718 -3.00585,0.761718 -1.7422,0 -3.1504,-0.558593 -4.22461,-1.675781 -1.07422,-1.117185 -1.61133,-2.726558 -1.61133,-4.828125 z m 2.16797,0 c -1e-5,1.593755 0.34765,2.787113 1.04297,3.580078 0.6953,0.792971 1.5703,1.189455 2.625,1.189453 1.04686,2e-6 1.91796,-0.398435 2.61328,-1.195312 0.6953,-0.796872 1.04295,-2.011714 1.04297,-3.644531 -2e-5,-1.539055 -0.34962,-2.705069 -1.04883,-3.498047 -0.69923,-0.792958 -1.56837,-1.189442 -2.60742,-1.189453 -1.0547,1.1e-5 -1.9297,0.394541 -2.625,1.183593 -0.69532,0.789072 -1.04298,1.980477 -1.04297,3.574219 z"
         id="path3054"
         inkscape:connector-curvature="0" />
      <path
         d="m 511.26785,29.232159 2.07422,0.269531 c -0.22657,1.42969 -0.80665,2.54883 -1.74023,3.357422 -0.93361,0.808594 -2.08009,1.21289 -3.43946,1.21289 -1.70313,0 -3.07227,-0.55664 -4.10742,-1.669921 -1.03516,-1.113279 -1.55273,-2.708981 -1.55273,-4.78711 0,-1.343742 0.22265,-2.519522 0.66797,-3.527344 0.44531,-1.007801 1.12304,-1.76366 2.0332,-2.267578 0.91015,-0.503893 1.90038,-0.755846 2.9707,-0.755859 1.35156,1.3e-5 2.45702,0.341809 3.31641,1.025391 0.85936,0.683604 1.41014,1.654306 1.65234,2.912109 l -2.05078,0.316406 c -0.19532,-0.835928 -0.54102,-1.464834 -1.03711,-1.886719 -0.4961,-0.421864 -1.09571,-0.632801 -1.79883,-0.632812 -1.0625,1.1e-5 -1.92578,0.38087 -2.58984,1.142578 -0.66407,0.761728 -0.9961,1.966805 -0.99609,3.615234 -1e-5,1.67188 0.32031,2.886723 0.96093,3.644532 0.64062,0.757814 1.47656,1.13672 2.50782,1.136718 0.82811,2e-6 1.51952,-0.253904 2.07422,-0.761718 0.55467,-0.50781 0.90624,-1.289059 1.05468,-2.34375 z"
         id="path3056"
         inkscape:connector-curvature="0" />
      <path
         d="m 523.30301,33.790752 0,-1.828125 c -0.96876,1.406251 -2.28516,2.109375 -3.94922,2.109375 -0.73438,0 -1.41993,-0.140625 -2.05664,-0.421875 -0.63672,-0.281249 -1.10938,-0.634764 -1.41797,-1.060546 -0.30859,-0.42578 -0.52539,-0.947264 -0.65039,-1.564454 -0.0859,-0.414059 -0.12891,-1.070308 -0.12891,-1.96875 l 0,-7.710937 2.10938,0 0,6.902344 c 0,1.101567 0.043,1.843753 0.12891,2.226562 0.1328,0.55469 0.41405,0.990237 0.84375,1.306641 0.42968,0.316408 0.96093,0.474611 1.59375,0.474609 0.6328,2e-6 1.22655,-0.162108 1.78125,-0.486328 0.55467,-0.324216 0.94725,-0.765622 1.17773,-1.324219 0.23046,-0.55859 0.34569,-1.369136 0.3457,-2.43164 l 0,-6.667969 2.10938,0 0,12.445312 z"
         id="path3058"
         inkscape:connector-curvature="0" />
      <path
         d="m 528.50613,33.790752 0,-12.445312 1.88672,0 0,1.746094 c 0.39062,-0.609364 0.91015,-1.099598 1.5586,-1.470703 0.64843,-0.371082 1.38671,-0.556628 2.21484,-0.556641 0.92187,1.3e-5 1.67773,0.191419 2.26758,0.574219 0.58983,0.382824 1.00585,0.91798 1.24805,1.605468 0.98436,-1.453113 2.26561,-2.179674 3.84375,-2.179687 1.23435,1.3e-5 2.18357,0.341809 2.84765,1.025391 0.66405,0.683604 0.99608,1.736338 0.9961,3.158203 l 0,8.542968 -2.09766,0 0,-7.839843 c -2e-5,-0.843742 -0.0684,-1.451163 -0.20508,-1.822266 -0.13673,-0.371084 -0.38478,-0.669912 -0.74414,-0.896484 -0.35939,-0.226552 -0.78126,-0.339833 -1.26562,-0.339844 -0.87502,1.1e-5 -1.60158,0.291026 -2.17969,0.873047 -0.57814,0.58204 -0.8672,1.51368 -0.86719,2.794922 l 0,7.230468 -2.10937,0 0,-8.085937 c -10e-6,-0.937491 -0.17189,-1.640615 -0.51563,-2.109375 -0.34376,-0.468739 -0.90626,-0.703114 -1.6875,-0.703125 -0.59376,1.1e-5 -1.14258,0.156261 -1.64648,0.46875 -0.50391,0.31251 -0.86915,0.769541 -1.09571,1.371094 -0.22656,0.601571 -0.33984,1.468757 -0.33984,2.601562 l 0,6.457031 z"
         id="path3060"
         inkscape:connector-curvature="0" />
      <path
         d="m 557.04129,29.78294 2.17969,0.269531 c -0.34376,1.27344 -0.98048,2.26172 -1.91016,2.964844 -0.9297,0.703125 -2.11719,1.054687 -3.5625,1.054687 -1.82032,0 -3.26367,-0.560546 -4.33008,-1.68164 -1.0664,-1.121091 -1.59961,-2.693355 -1.59961,-4.716797 0,-2.093742 0.53907,-3.71874 1.61719,-4.875 1.07812,-1.156238 2.47656,-1.734362 4.19531,-1.734375 1.66406,1.3e-5 3.02343,0.566418 4.07813,1.699219 1.05467,1.132822 1.58202,2.72657 1.58203,4.78125 -10e-6,0.125006 -0.004,0.312506 -0.0117,0.5625 l -9.28125,0 c 0.0781,1.367191 0.46484,2.414065 1.16016,3.140625 0.69531,0.726564 1.56249,1.089845 2.60156,1.089843 0.77343,2e-6 1.43359,-0.203123 1.98047,-0.609375 0.54686,-0.406247 0.98046,-1.054684 1.30078,-1.945312 z m -6.92578,-3.410156 6.94922,0 c -0.0938,-1.046867 -0.35939,-1.832022 -0.79688,-2.355469 -0.67188,-0.81249 -1.54297,-1.218739 -2.61328,-1.21875 -0.96875,1.1e-5 -1.78321,0.324229 -2.44336,0.972656 -0.66016,0.648447 -1.02539,1.515634 -1.0957,2.601563 z"
         id="path3062"
         inkscape:connector-curvature="0" />
      <path
         d="m 561.88113,33.790752 0,-12.445312 1.89844,0 0,1.769531 c 0.91406,-1.367175 2.23437,-2.050768 3.96094,-2.050781 0.74999,1.3e-5 1.43944,0.134778 2.06836,0.404297 0.62889,0.269543 1.0996,0.623058 1.41211,1.060547 0.31249,0.43751 0.53124,0.957041 0.65625,1.558593 0.0781,0.390635 0.11717,1.074228 0.11719,2.050782 l 0,7.652343 -2.10938,0 0,-7.570312 c -10e-6,-0.859367 -0.082,-1.501944 -0.24609,-1.927734 -0.16408,-0.425772 -0.45509,-0.765615 -0.87305,-1.019532 -0.41798,-0.253895 -0.90821,-0.380848 -1.4707,-0.380859 -0.89845,1.1e-5 -1.67384,0.285167 -2.32618,0.855469 -0.65234,0.570322 -0.97851,1.652352 -0.97851,3.246093 l 0,6.796875 z"
         id="path3064"
         inkscape:connector-curvature="0" />
      <path
         d="m 579.84598,31.904034 0.30469,1.863281 c -0.59376,0.125 -1.12501,0.1875 -1.59375,0.1875 -0.76563,0 -1.35938,-0.121094 -1.78125,-0.363281 -0.42188,-0.242187 -0.71876,-0.560546 -0.89063,-0.955078 -0.17188,-0.39453 -0.25781,-1.224607 -0.25781,-2.490235 l 0,-7.160156 -1.54688,0 0,-1.640625 1.54688,0 0,-3.082031 2.09765,-1.265625 0,4.347656 2.1211,0 0,1.640625 -2.1211,0 0,7.277344 c 0,0.601565 0.0371,0.988283 0.11133,1.160156 0.0742,0.171877 0.19531,0.308596 0.36328,0.410156 0.16797,0.101565 0.4082,0.152346 0.72071,0.152344 0.23437,2e-6 0.54296,-0.02734 0.92578,-0.08203 z"
         id="path3066"
         inkscape:connector-curvature="0" />
      <path
         d="m 433.72488,63.790752 0,-17.179687 2.10938,0 0,6.164062 c 0.98437,-1.140612 2.22656,-1.710924 3.72656,-1.710937 0.92187,1.3e-5 1.72265,0.181653 2.40235,0.544922 0.67967,0.363293 1.166,0.865245 1.45898,1.505859 0.29296,0.640635 0.43944,1.570322 0.43945,2.789063 l 0,7.886718 -2.10937,0 0,-7.886718 c -10e-6,-1.054679 -0.22853,-1.822256 -0.68555,-2.302735 -0.45704,-0.480458 -1.10352,-0.720692 -1.93945,-0.720703 -0.62501,1.1e-5 -1.2129,0.16212 -1.76367,0.486328 -0.55079,0.324229 -0.94337,0.763682 -1.17774,1.31836 -0.23438,0.554696 -0.35156,1.32032 -0.35156,2.296875 l 0,6.808593 z"
         id="path3068"
         inkscape:connector-curvature="0" />
      <path
         d="m 446.2991,57.568096 c 0,-2.304679 0.64063,-4.011708 1.92188,-5.121094 1.07031,-0.921862 2.37499,-1.382799 3.91406,-1.382812 1.71093,1.3e-5 3.10937,0.560559 4.19531,1.681641 1.08593,1.121103 1.6289,2.66993 1.62891,4.646484 -10e-6,1.601567 -0.24025,2.861332 -0.7207,3.779297 -0.48048,0.91797 -1.1797,1.63086 -2.09766,2.138672 -0.91798,0.507812 -1.91993,0.761718 -3.00586,0.761718 -1.74219,0 -3.15039,-0.558593 -4.22461,-1.675781 -1.07422,-1.117185 -1.61133,-2.726558 -1.61133,-4.828125 z m 2.16797,0 c 0,1.593755 0.34765,2.787113 1.04297,3.580078 0.69531,0.792971 1.57031,1.189455 2.625,1.189453 1.04687,2e-6 1.91796,-0.398435 2.61328,-1.195312 0.6953,-0.796872 1.04296,-2.011714 1.04297,-3.644531 -1e-5,-1.539055 -0.34962,-2.705069 -1.04883,-3.498047 -0.69923,-0.792958 -1.56836,-1.189442 -2.60742,-1.189453 -1.05469,1.1e-5 -1.92969,0.394541 -2.625,1.183593 -0.69532,0.789072 -1.04297,1.980477 -1.04297,3.574219 z"
         id="path3070"
         inkscape:connector-curvature="0" />
      <path
         d="m 460.39676,63.790806 0,-17.179687 2.10937,0 0,17.179687 z"
         id="path3072"
         inkscape:connector-curvature="0" />
      <path
         d="m 473.8616,63.791684 0,-1.570312 c -0.78907,1.234375 -1.94922,1.851562 -3.48047,1.851562 -0.99219,0 -1.9043,-0.273437 -2.73632,-0.820312 -0.83204,-0.546874 -1.47657,-1.310545 -1.9336,-2.291016 -0.45703,-0.980465 -0.68555,-2.107417 -0.68554,-3.380859 -10e-6,-1.24218 0.20703,-2.369132 0.62109,-3.380859 0.41406,-1.011709 1.03515,-1.787098 1.86328,-2.326172 0.82812,-0.53905 1.7539,-0.808581 2.77734,-0.808594 0.75,1.3e-5 1.41797,0.158216 2.00391,0.474609 0.58593,0.316418 1.06249,0.728527 1.42969,1.236328 l 0,-6.164062 2.09765,0 0,17.179687 z m -6.66797,-6.210937 c 0,1.593755 0.33594,2.78516 1.00782,3.574219 0.67187,0.789064 1.46483,1.183595 2.3789,1.183593 0.92187,2e-6 1.70507,-0.376951 2.34961,-1.130859 0.64452,-0.753903 0.96679,-1.904292 0.9668,-3.451172 -10e-6,-1.703117 -0.32814,-2.953116 -0.98438,-3.75 -0.65625,-0.796864 -1.46485,-1.195301 -2.42578,-1.195312 -0.9375,1.1e-5 -1.7207,0.382823 -2.34961,1.148437 -0.62891,0.765634 -0.94336,1.972664 -0.94336,3.621094 z"
         id="path3074"
         inkscape:connector-curvature="0" />
      <path
         d="m 478.30311,60.080213 2.08594,-0.328125 c 0.11718,0.83594 0.44335,1.476565 0.97851,1.921875 0.53515,0.445314 1.2832,0.66797 2.24414,0.667968 0.96875,2e-6 1.6875,-0.197264 2.15625,-0.591796 0.46874,-0.394529 0.70312,-0.857419 0.70313,-1.388672 -10e-6,-0.476559 -0.20704,-0.851559 -0.6211,-1.125 -0.28907,-0.187496 -1.00782,-0.425777 -2.15625,-0.714844 -1.54688,-0.390619 -2.61914,-0.72851 -3.21679,-1.013672 -0.59766,-0.28515 -1.05079,-0.67968 -1.35938,-1.183594 -0.30859,-0.503898 -0.46289,-1.060538 -0.46289,-1.669922 0,-0.554677 0.12695,-1.068349 0.38086,-1.541015 0.25391,-0.472645 0.59961,-0.865223 1.03711,-1.177735 0.32812,-0.242175 0.77539,-0.447253 1.3418,-0.615234 0.5664,-0.167956 1.17382,-0.25194 1.82226,-0.251953 0.97656,1.3e-5 1.83398,0.140637 2.57227,0.421875 0.73827,0.281262 1.28319,0.662121 1.63476,1.142578 0.35156,0.480479 0.59374,1.123057 0.72657,1.927734 l -2.0625,0.28125 c -0.0938,-0.640615 -0.36525,-1.140614 -0.81446,-1.5 -0.44922,-0.359364 -1.08399,-0.539051 -1.90429,-0.539062 -0.96876,1.1e-5 -1.66016,0.160167 -2.07422,0.480469 -0.41407,0.320322 -0.6211,0.695322 -0.6211,1.125 0,0.273446 0.0859,0.51954 0.25782,0.738281 0.17187,0.226571 0.4414,0.414071 0.80859,0.5625 0.21093,0.07813 0.83203,0.25782 1.86328,0.539062 1.49218,0.398445 2.5332,0.724617 3.12305,0.978516 0.58983,0.253913 1.05272,0.623053 1.38867,1.107422 0.33593,0.48438 0.5039,1.085942 0.50391,1.804687 -10e-6,0.703128 -0.20509,1.365237 -0.61524,1.986329 -0.41016,0.621094 -1.00196,1.101563 -1.77539,1.441406 -0.77344,0.339843 -1.64844,0.509765 -2.625,0.509765 -1.61719,0 -2.84961,-0.335937 -3.69726,-1.007812 -0.84766,-0.671874 -1.38868,-1.667966 -1.62305,-2.988281 z"
         id="path3076"
         inkscape:connector-curvature="0" />
      <path
         d="m 502.41022,61.911033 0.30469,1.863281 c -0.59376,0.125 -1.12501,0.1875 -1.59375,0.1875 -0.76563,0 -1.35938,-0.121094 -1.78125,-0.363281 -0.42188,-0.242187 -0.71876,-0.560546 -0.89063,-0.955078 -0.17188,-0.39453 -0.25781,-1.224607 -0.25781,-2.490235 l 0,-7.160156 -1.54688,0 0,-1.640625 1.54688,0 0,-3.082031 2.09765,-1.265625 0,4.347656 2.1211,0 0,1.640625 -2.1211,0 0,7.277344 c 0,0.601565 0.0371,0.988283 0.11133,1.160156 0.0742,0.171877 0.19531,0.308596 0.36328,0.410156 0.16797,0.101565 0.4082,0.152346 0.72071,0.152344 0.23437,2e-6 0.54296,-0.02734 0.92578,-0.08203 z"
         id="path3078"
         inkscape:connector-curvature="0" />
      <path
         d="m 512.98893,59.803121 2.17969,0.269531 c -0.34376,1.27344 -0.98048,2.26172 -1.91016,2.964844 -0.9297,0.703125 -2.11719,1.054687 -3.5625,1.054687 -1.82032,0 -3.26367,-0.560546 -4.33008,-1.68164 -1.0664,-1.121091 -1.59961,-2.693355 -1.59961,-4.716797 0,-2.093742 0.53907,-3.71874 1.61719,-4.875 1.07812,-1.156238 2.47656,-1.734362 4.19531,-1.734375 1.66406,1.3e-5 3.02343,0.566418 4.07813,1.699219 1.05467,1.132822 1.58202,2.72657 1.58203,4.78125 -10e-6,0.125006 -0.004,0.312506 -0.0117,0.5625 l -9.28125,0 c 0.0781,1.367191 0.46484,2.414065 1.16016,3.140625 0.69531,0.726564 1.56249,1.089845 2.60156,1.089843 0.77343,2e-6 1.43359,-0.203123 1.98047,-0.609375 0.54686,-0.406247 0.98046,-1.054684 1.30078,-1.945312 z m -6.92578,-3.410156 6.94922,0 c -0.0938,-1.046867 -0.35939,-1.832022 -0.79688,-2.355469 -0.67188,-0.81249 -1.54297,-1.218739 -2.61328,-1.21875 -0.96875,1.1e-5 -1.78321,0.324229 -2.44336,0.972656 -0.66016,0.648447 -1.02539,1.515634 -1.0957,2.601563 z"
         id="path3080"
         inkscape:connector-curvature="0" />
      <path
         d="m 516.41748,63.801519 4.54688,-6.46875 -4.20703,-5.976562 2.63672,0 1.91015,2.917969 c 0.35937,0.554696 0.64843,1.019539 0.86719,1.394531 0.34374,-0.515616 0.66015,-0.972647 0.94922,-1.371094 l 2.09766,-2.941406 2.51953,0 -4.30078,5.859375 4.6289,6.585937 -2.58984,0 -2.55469,-3.867187 -0.67969,-1.042969 -3.26953,4.910156 z"
         id="path3082"
         inkscape:connector-curvature="0" />
      <path
         d="m 534.4241,61.904907 0.30469,1.863281 c -0.59376,0.125 -1.12501,0.1875 -1.59375,0.1875 -0.76563,0 -1.35938,-0.121094 -1.78125,-0.363281 -0.42188,-0.242187 -0.71875,-0.560546 -0.89062,-0.955078 -0.17188,-0.39453 -0.25782,-1.224607 -0.25782,-2.490235 l 0,-7.160156 -1.54687,0 0,-1.640625 1.54687,0 0,-3.082031 2.09766,-1.265625 0,4.347656 2.12109,0 0,1.640625 -2.12109,0 0,7.277344 c -10e-6,0.601565 0.0371,0.988283 0.11133,1.160156 0.0742,0.171877 0.19531,0.308596 0.36328,0.410156 0.16796,0.101565 0.4082,0.152346 0.7207,0.152344 0.23437,2e-6 0.54296,-0.02734 0.92578,-0.08203 z"
         id="path3084"
         inkscape:connector-curvature="0" />
    </g>
    <rect
       style="opacity:0.28120003;fill:#a02c2c;fill-opacity:1"
       id="rect3088"
       width="22.622305"
       height="26.414021"
       x="247.80389"
       y="112.75806"
       transform="matrix(0.76994544,0.63810972,-0.6736914,0.73901279,0,0)" />
    <rect
       style="opacity:0.28120003;fill:#a02c2c;fill-opacity:1"
       id="rect3092"
       width="2.1428571"
       height="152.14287"
       x="517.14288"
       y="336.64789" />
    <text
       xml:space="preserve"
       style="font-size:24px;font-style:normal;font-weight:normal;line-height:125%;letter-spacing:0px;word-spacing:0px;fill:#d38d5f;fill-opacity:1;stroke:none;font-family:Bitstream Vera Sans"
       x="468.57141"
       y="283.07645"
       id="text3094"
       sodipodi:linespacing="125%"><tspan
         sodipodi:role="line"
         id="tspan3096"
         x="468.57141"
         y="283.07645">holds *</tspan><tspan
         sodipodi:role="line"
         x="468.57141"
         y="313.07645"
         id="tspan3098">FileDocuments</tspan></text>
    <rect
       style="opacity:0.28120002999999999;fill:#ff6600;fill-opacity:1"
       id="rect3116"
       width="161.42857"
       height="181.42857"
       x="31.428572"
       y="563.79077" />
    <rect
       style="opacity:0.28120002999999999;fill:#0000ff;fill-opacity:1"
       id="rect3116-1"
       width="161.42857"
       height="181.42857"
       x="252.85715"
       y="563.07648" />
    <rect
       style="opacity:0.28120002999999999;fill:#ffcc00;fill-opacity:1"
       id="rect3116-1-7"
       width="161.42857"
       height="181.42857"
       x="462.14285"
       y="560.2193" />
    <text
       xml:space="preserve"
       style="font-size:24px;font-style:normal;font-weight:normal;line-height:125%;letter-spacing:0px;word-spacing:0px;fill:#000000;fill-opacity:1;stroke:none;font-family:Bitstream Vera Sans"
       x="51.42857"
       y="598.79077"
       id="text3156"
       sodipodi:linespacing="125%"><tspan
         sodipodi:role="line"
         id="tspan3158"
         x="51.42857"
         y="598.79077">Html</tspan></text>
    <text
       xml:space="preserve"
       style="font-size:24px;font-style:normal;font-weight:normal;line-height:125%;letter-spacing:0px;word-spacing:0px;fill:#000000;fill-opacity:1;stroke:none;font-family:Bitstream Vera Sans"
       x="272.85715"
       y="594.50507"
       id="text3160"
       sodipodi:linespacing="125%"><tspan
         sodipodi:role="line"
         id="tspan3162"
         x="272.85715"
         y="594.50507">Css</tspan></text>
    <text
       xml:space="preserve"
       style="font-size:24px;font-style:normal;font-weight:normal;line-height:125%;letter-spacing:0px;word-spacing:0px;fill:#4d4d4d;fill-opacity:1;stroke:none;font-family:Bitstream Vera Sans"
       x="491.42856"
       y="589.50507"
       id="text3164"
       sodipodi:linespacing="125%"><tspan
         sodipodi:role="line"
         id="tspan3166"
         x="491.42856"
         y="589.50507">Js</tspan></text>
    <rect
       style="opacity:0.28120003;fill:#4d4d4d;fill-opacity:1"
       id="rect3168"
       width="592.14288"
       height="42.857143"
       x="27.857143"
       y="487.36218" />
    <text
       xml:space="preserve"
       style="font-size:24px;font-style:normal;font-weight:normal;line-height:125%;letter-spacing:0px;word-spacing:0px;fill:#000000;fill-opacity:1;stroke:none;font-family:Bitstream Vera Sans"
       x="45"
       y="519.50507"
       id="text3170"
       sodipodi:linespacing="125%"><tspan
         sodipodi:role="line"
         id="tspan3172"
         x="45"
         y="519.50507">FileDocuments holds 1 +</tspan></text>
    <rect
       style="opacity:0.28120003;fill:#4d4d4d;fill-opacity:1"
       id="rect3174"
       width="7.1428571"
       height="45.714287"
       x="111.42857"
       y="530.2193" />
    <rect
       style="opacity:0.28120003;fill:#4d4d4d;fill-opacity:1"
       id="rect3176"
       width="6.4285712"
       height="56.42857"
       x="347.85715"
       y="521.64789" />
    <rect
       style="opacity:0.28120003;fill:#4d4d4d;fill-opacity:1"
       id="rect3178"
       width="7.8571429"
       height="43.57143"
       x="542.85712"
       y="529.50507" />
    <rect
       style="opacity:0.28120003;fill:#4d4d4d;fill-opacity:1"
       id="rect3180"
       width="168.57143"
       height="6.4285712"
       x="292.85715"
       y="194.50504" />
    <rect
       style="opacity:0.28120003;fill:#4d4d4d;fill-opacity:1"
       id="rect3182"
       width="11.428572"
       height="157.85715"
       x="513.57141"
       y="335.93362" />
    <rect
       style="opacity:0.28120003;fill:#4d4d4d;fill-opacity:1"
       id="rect3184"
       width="619.28571"
       height="62.142857"
       x="17.142857"
       y="734.50507" />
    <text
       xml:space="preserve"
       style="font-size:24px;font-style:normal;font-weight:normal;line-height:125%;letter-spacing:0px;word-spacing:0px;fill:#000000;fill-opacity:1;stroke:none;font-family:Bitstream Vera Sans"
       x="46.42857"
       y="760.21936"
       id="text3186"
       sodipodi:linespacing="125%"><tspan
         sodipodi:role="line"
         id="tspan3188"
         x="46.42857"
         y="760.21936">Gets parsed when changes are detected</tspan><tspan
         sodipodi:role="line"
         x="46.42857"
         y="790.21936"
         id="tspan3190">Parser sends information to GUI via FileDocument</tspan></text>
  </g>
</svg>
